<svg id="Layer_2" data-name="Layer 2" xmlns="http://www.w3.org/2000/svg" width="100" height="43.489" viewBox="0 0 100 43.489">
  <g id="Layer_1" data-name="Layer 1">
    <g id="icon-number-blue">
      <g id="Group_736" data-name="Group 736" transform="translate(0 25.611)">
        <g id="Group_709" data-name="Group 709">
          <rect id="Rectangle_14" data-name="Rectangle 14" width="8.999" height="3.278" transform="translate(90.986 8.06)" fill="#253370"/>
          <rect id="Rectangle_15" data-name="Rectangle 15" width="47.78" height="3.278" transform="translate(0 8.06)" fill="#253370"/>
          <path id="Path_37" data-name="Path 37" d="M56.559,35.068A8.939,8.939,0,1,1,65.5,26.129a8.939,8.939,0,0,1-8.939,8.939Zm0-14.6a5.662,5.662,0,1,0,5.662,5.662A5.662,5.662,0,0,0,56.559,20.468Z" transform="translate(23.328 -17.19)" fill="#253370"/>
          <path id="Path_38" data-name="Path 38" d="M43.009,35.068a8.939,8.939,0,1,1,8.939-8.939,8.939,8.939,0,0,1-8.939,8.939Zm0-14.6a5.662,5.662,0,1,0,5.662,5.662,5.662,5.662,0,0,0-5.662-5.662Z" transform="translate(16.69 -17.19)" fill="#253370"/>
        </g>
      </g>
      <g id="Group_709-2" data-name="Group 709-2">
        <rect id="Rectangle_16" data-name="Rectangle 16" width="8.999" height="3.278" transform="translate(0 8.06)" fill="#253370"/>
        <rect id="Rectangle_17" data-name="Rectangle 17" width="27.846" height="3.278" transform="translate(72.154 8.06)" fill="#253370"/>
        <path id="Path_39" data-name="Path 39" d="M16.439,17.878a8.939,8.939,0,1,1,8.939-8.939A8.939,8.939,0,0,1,16.439,17.878Zm0-14.6A5.662,5.662,0,1,0,22.1,8.939a5.662,5.662,0,0,0-5.662-5.662Z" transform="translate(3.674)" fill="#253370"/>
        <path id="Path_40" data-name="Path 40" d="M29.939,17.878a8.939,8.939,0,1,1,8.939-8.939A8.939,8.939,0,0,1,29.939,17.878Zm0-14.6a5.662,5.662,0,1,0,4.042,1.637,5.662,5.662,0,0,0-4.042-1.637Z" transform="translate(10.287)" fill="#253370"/>
        <path id="Path_41" data-name="Path 41" d="M43.729,17.878a8.939,8.939,0,1,1,8.939-8.939A8.939,8.939,0,0,1,43.729,17.878Zm0-14.6a5.662,5.662,0,1,0,5.661,5.662,5.662,5.662,0,0,0-5.661-5.662Z" transform="translate(17.043)" fill="#253370"/>
      </g>
    </g>
  </g>
</svg>
