<svg id="Layer_2" data-name="Layer 2" xmlns="http://www.w3.org/2000/svg" width="100" height="72.737" viewBox="0 0 100 72.737">
  <g id="Layer_1" data-name="Layer 1">
    <g id="icon-photo-blue">
      <g id="Group_720" data-name="Group 720">
        <path id="Path_16" data-name="Path 16" d="M52.737,11.612,45.163,4.038H32l-7.186,7.171L22.71,9.1,30.762,1.05H46.4l8.455,8.44Z" transform="translate(11.216 0.519)" fill="#253370"/>
        <path id="Path_17" data-name="Path 17" d="M21.823,10.2H18.836V2.988H8.558V10.2H5.57V0H21.823Z" transform="translate(2.751)" fill="#253370"/>
        <path id="Path_18" data-name="Path 18" d="M100,69.571H0V6.41H100ZM2.988,66.583H97.012V9.4H2.988Z" transform="translate(0 3.166)" fill="#253370"/>
        <rect id="Rectangle_2" data-name="Rectangle 2" width="9.322" height="2.988" transform="translate(80.027 17.284)" fill="#253370"/>
        <rect id="Rectangle_3" data-name="Rectangle 3" width="31.207" height="2.988" transform="translate(67.299 27.144)" fill="#253370"/>
        <rect id="Rectangle_4" data-name="Rectangle 4" width="30.878" height="2.988" transform="translate(1.823 27.144)" fill="#253370"/>
        <path id="Path_19" data-name="Path 19" d="M41.026,57.963A22.856,22.856,0,1,1,63.883,35.106,22.856,22.856,0,0,1,41.026,57.963Zm0-42.725A19.869,19.869,0,1,0,60.895,35.106,19.869,19.869,0,0,0,41.026,15.238Z" transform="translate(8.974 6.05)" fill="#253370"/>
        <path id="Path_20" data-name="Path 20" d="M37.5,43.75h0a12.175,12.175,0,0,1,0-24.35h0A12.19,12.19,0,0,1,49.67,31.56h0A12.19,12.19,0,0,1,37.5,43.75Zm0-21.362h0a9.187,9.187,0,0,0,0,18.375h0a9.2,9.2,0,0,0,9.187-9.187h0A9.187,9.187,0,0,0,37.5,22.388Z" transform="translate(12.505 9.581)" fill="#253370"/>
      </g>
    </g>
  </g>
</svg>
