<svg xmlns="http://www.w3.org/2000/svg" width="97.361" height="99.53" viewBox="0 0 97.361 99.53">
  <g id="Layer_2" data-name="Layer 2" transform="translate(0 0)">
    <g id="Layer_1" data-name="Layer 1" transform="translate(0 0)">
      <g id="icon-drawing-blue">
        <g id="Group_727" data-name="Group 727" transform="translate(1.026)">
          <path id="Path_27" data-name="Path 27" d="M54.7,43.67a16.625,16.625,0,0,1-10.951-4.849A17.274,17.274,0,0,1,37.85,25.9h0c.251-6.6,5.026-11.585,9.035-13.84A16.876,16.876,0,0,1,57.2,10.228,16.684,16.684,0,0,0,66.59,8.755a20.634,20.634,0,0,0,7.3-6.338C75.124.943,76.392-.619,78.072.25a2.373,2.373,0,0,1,1.179,1.474c1.091,3.419-3.11,14.9-7.605,23.582-5.9,11.408-9.212,17.686-15.918,18.35C55.389,43.656,55.035,43.67,54.7,43.67ZM41.137,25.984a14.282,14.282,0,0,0,4.834,10.45,12.9,12.9,0,0,0,9.447,3.935c4.952-.486,7.929-6.2,13.265-16.6a79.235,79.235,0,0,0,7.222-18.7,22.83,22.83,0,0,1-7.856,6.721,20.03,20.03,0,0,1-10.98,1.754c-2.948-.177-5.483-.324-8.548,1.4-3.537,2-7.192,6.22-7.369,11.142Z" transform="translate(16.91 0)" fill="#253370"/>
          <path id="Path_28" data-name="Path 28" d="M10.842,80.4A10.2,10.2,0,0,1,3.635,63.034L31.049,35.62,33.333,37.9,5.919,65.333a6.957,6.957,0,0,0,9.845,9.831L43.179,47.75l2.284,2.284L18.049,77.448A10.14,10.14,0,0,1,10.842,80.4Z" transform="translate(-0.696 16.879)" fill="#253370"/>
          <path id="Path_29" data-name="Path 29" d="M46.908,39.668,46.2,38.194l-1.12-1.105a6.9,6.9,0,0,0,2.049-4.952,6.824,6.824,0,0,0-2.034-4.849,7,7,0,0,0-9.845,0l-1.105-1.12L32.67,25.4l.133-.251.177-.177a10.317,10.317,0,0,1,14.414,0,10.155,10.155,0,0,1,0,14.385l-.206.206Z" transform="translate(14.456 10.443)" fill="#253370"/>
        </g>
        <g id="Group_728" data-name="Group 728" transform="translate(0 4.51)">
          <path id="Path_30" data-name="Path 30" d="M77.166,94.916A10.42,10.42,0,0,1,69.8,91.851L7.643,29.757a2.4,2.4,0,0,1,0-3.316L23.635,10.419a2.373,2.373,0,0,1,3.331,0L89.06,72.484a10.582,10.582,0,0,1,0,14.916h0l-4.422,4.422a10.464,10.464,0,0,1-7.369,3.1Zm-66.6-66.84,61.46,61.445a7.207,7.207,0,0,0,5.144,2.152h0a7.237,7.237,0,0,0,5.129-2.152L86.716,85.1a7.369,7.369,0,0,0,0-10.317l-61.4-61.445ZM25.949,12.7Z" transform="translate(3.307 0.104)" fill="#253370"/>
          <path id="Path_31" data-name="Path 31" d="M11.791,32.523a2.108,2.108,0,0,1-1.326-.486,2.225,2.225,0,0,1-.516-.648l-.088-.206L0,3.06l28.755,9.462a2.108,2.108,0,0,1,1.032,1.194,2.063,2.063,0,0,1-.118,1.592,1.975,1.975,0,0,1-.486.619L13.265,31.845a2.063,2.063,0,0,1-1.326.6ZM5.217,8.189l7.016,20.118L25.631,14.9Z" transform="translate(0 -3.06)" fill="#253370"/>
        </g>
        <rect id="Rectangle_7" data-name="Rectangle 7" width="7.959" height="3.243" transform="translate(4.409 14.381) rotate(-45)" fill="#253370"/>
        <rect id="Rectangle_8" data-name="Rectangle 8" width="3.243" height="97.437" transform="translate(18.945 25.32) rotate(-45)" fill="#253370"/>
      </g>
    </g>
  </g>
</svg>
