<svg xmlns="http://www.w3.org/2000/svg" width="100" height="82.767" viewBox="0 0 100 82.767">
  <g id="Layer_2" data-name="Layer 2" transform="translate(0)">
    <g id="Layer_1" data-name="Layer 1" transform="translate(0)">
      <g id="icon-slider-blue" transform="translate(0)">
        <g id="Group_711" data-name="Group 711" transform="translate(0.015)">
          <g id="Group_709-3" data-name="Group 709-3">
            <rect id="Rectangle_25" data-name="Rectangle 25" width="47.433" height="3.53" transform="translate(52.552 6.691)" fill="#253370"/>
            <rect id="Rectangle_26" data-name="Rectangle 26" width="11.81" height="3.53" transform="translate(0 6.691)" fill="#253370"/>
            <g id="Rectangle_451" data-name="Rectangle 451" transform="translate(16.127)">
              <rect id="Rectangle_27" data-name="Rectangle 27" width="33.697" height="17.651" transform="translate(0)" fill="none"/>
              <path id="Path_46" data-name="Path 46" d="M43.757,17.651H10.06V0h33.7ZM13.59,14.121H40.227V3.53H13.59Z" transform="translate(-10.06)" fill="#263471"/>
            </g>
          </g>
        </g>
        <g id="Group_741" data-name="Group 741" transform="translate(0.015 33.12)">
          <g id="Group_709-4" data-name="Group 709-4">
            <rect id="Rectangle_28" data-name="Rectangle 28" width="47.433" height="3.53" transform="translate(0 6.354)" fill="#253370"/>
            <rect id="Rectangle_29" data-name="Rectangle 29" width="11.81" height="3.53" transform="translate(88.175 6.338)" fill="#253370"/>
            <g id="Rectangle_451-2" data-name="Rectangle 451-2" transform="translate(51.3)">
              <rect id="Rectangle_30" data-name="Rectangle 30" width="33.104" height="16.544" fill="none"/>
              <path id="Path_47" data-name="Path 47" d="M65.055,37.264H32V20.64H65.055ZM35.5,33.734H61.525V24.17H35.5Z" transform="translate(-31.968 -20.64)" fill="#263471"/>
            </g>
          </g>
        </g>
        <g id="Group_742" data-name="Group 742" transform="translate(0 66.223)">
          <g id="Group_709-5" data-name="Group 709-5">
            <rect id="Rectangle_31" data-name="Rectangle 31" width="3.53" height="29.381" transform="translate(0 9.882) rotate(-89.71)" fill="#253370"/>
            <rect id="Rectangle_32" data-name="Rectangle 32" width="27.038" height="3.53" transform="translate(72.962 6.338)" fill="#253370"/>
            <g id="Rectangle_451-3" data-name="Rectangle 451-3" transform="translate(34.756)">
              <rect id="Rectangle_33" data-name="Rectangle 33" width="33.104" height="16.544" fill="none"/>
              <path id="Path_48" data-name="Path 48" d="M54.764,57.814H21.66V41.27h33.1ZM25.19,54.284H51.233V44.8H25.19Z" transform="translate(-21.66 -41.27)" fill="#263471"/>
            </g>
          </g>
        </g>
      </g>
    </g>
  </g>
</svg>
