<svg xmlns="http://www.w3.org/2000/svg" xmlns:xlink="http://www.w3.org/1999/xlink" width="100" height="100" viewBox="0 0 100 100">
  <defs>
    <clipPath id="clip-icon-form-builder-time-date">
      <rect width="100" height="100"/>
    </clipPath>
  </defs>
  <g id="icon-form-builder-time-date" clip-path="url(#clip-icon-form-builder-time-date)">
    <rect width="100" height="100" fill="rgba(255,255,255,0)"/>
    <g id="Layer_2" data-name="Layer 2" transform="translate(0 6)">
      <g id="Layer_1" data-name="Layer 1">
        <g id="icon-time-date-blue">
          <path id="Path_3" data-name="Path 3" d="M92.682,83.387H7.333A7.348,7.348,0,0,1,0,76.053V11.433A7.348,7.348,0,0,1,7.333,4.1h7.226V7.468H7.333a3.965,3.965,0,0,0-3.965,3.965v64.62a3.965,3.965,0,0,0,3.965,3.965H92.682a3.965,3.965,0,0,0,3.95-3.965V11.433a3.965,3.965,0,0,0-3.95-3.965H85.456V4.1h7.226A7.333,7.333,0,0,1,100,11.433v64.62a7.333,7.333,0,0,1-7.318,7.333Z" transform="translate(0 2.177)" fill="#253370"/>
          <rect id="Rectangle_1" data-name="Rectangle 1" width="36.513" height="3.368" transform="translate(31.751 6.277)" fill="#253370"/>
          <path id="Path_4" data-name="Path 4" d="M28.976,18.509H8.4V0h3.368V15.141h13.84V0h3.368Z" transform="translate(4.46)" fill="#253370"/>
          <path id="Path_5" data-name="Path 5" d="M64.04,18.509H43.48V0h3.368V15.141H60.672V0H64.04Z" transform="translate(23.085)" fill="#253370"/>
          <g id="Group_718" data-name="Group 718" transform="translate(15.86 34.385)">
            <path id="Path_6" data-name="Path 6" d="M26.048,32.5H22.68V22.46H36.045v3.368h-10Z" transform="translate(-3.819 -22.46)" fill="#253370"/>
            <path id="Path_7" data-name="Path 7" d="M38.358,32.5H34.99V22.46H48.37v3.368H38.358Z" transform="translate(2.717 -22.46)" fill="#253370"/>
            <path id="Path_8" data-name="Path 8" d="M50.668,32.5H47.3V22.46H60.68v3.368H50.668Z" transform="translate(9.252 -22.46)" fill="#253370"/>
            <path id="Path_9" data-name="Path 9" d="M26.048,41.473H22.68V31.43H36.045V34.8h-10Z" transform="translate(-3.819 -17.698)" fill="#253370"/>
            <path id="Path_10" data-name="Path 10" d="M38.358,41.473H34.99V31.43H48.37V34.8H38.358Z" transform="translate(2.717 -17.698)" fill="#253370"/>
            <path id="Path_11" data-name="Path 11" d="M50.668,41.473H47.3V31.43H60.68V34.8H50.668Z" transform="translate(9.252 -17.698)" fill="#253370"/>
            <path id="Path_12" data-name="Path 12" d="M13.728,50.438H10.36V40.41H23.74v3.368H13.728Z" transform="translate(-10.36 -12.93)" fill="#253370"/>
            <path id="Path_13" data-name="Path 13" d="M13.728,41.473H10.36V31.43H23.74V34.8H13.728Z" transform="translate(-10.36 -17.698)" fill="#253370"/>
            <path id="Path_14" data-name="Path 14" d="M26.048,50.438H22.68V40.41H36.045v3.368h-10Z" transform="translate(-3.819 -12.93)" fill="#253370"/>
            <path id="Path_15" data-name="Path 15" d="M38.358,50.438H34.99V40.41H48.37v3.368H38.358Z" transform="translate(2.717 -12.93)" fill="#253370"/>
          </g>
        </g>
      </g>
    </g>
  </g>
</svg>
