<svg xmlns="http://www.w3.org/2000/svg" width="99.199" height="99.201" viewBox="0 0 99.199 99.201">
  <g id="Layer_2" data-name="Layer 2" transform="translate(0 0.001)">
    <g id="Layer_1" data-name="Layer 1" transform="translate(0.1 0.099)">
      <g id="gears">
        <g id="Group_807" data-name="Group 807">
          <g id="Group_806" data-name="Group 806">
            <path id="Path_362" data-name="Path 362" d="M50.937,61.47a1.588,1.588,0,0,0-2.09-.752h0a24.575,24.575,0,0,1-3.957,1.491,1.532,1.532,0,0,0-1.1,1.2l-1.658,8.275a1.755,1.755,0,0,1-1.714,1.393H35.9a1.769,1.769,0,0,1-1.728-1.393l-1.658-8.275a1.532,1.532,0,0,0-1.1-1.2,25.355,25.355,0,0,1-5.5-2.341,1.532,1.532,0,0,0-1.63.07L17.32,64.618a1.755,1.755,0,0,1-2.215-.209l-3.246-3.149a1.769,1.769,0,0,1-.223-2.215L16.33,52.08a1.56,1.56,0,0,0,.07-1.63,25.356,25.356,0,0,1-2.285-5.573,1.56,1.56,0,0,0-1.2-1.115l-8.275-1.63a1.741,1.741,0,0,1-1.393-1.714V35.9a1.755,1.755,0,0,1,1.393-1.728L12.9,32.519a1.532,1.532,0,0,0,1.2-1.1,25.356,25.356,0,0,1,2.285-5.5,1.532,1.532,0,0,0,0-1.63L11.705,17.32a1.741,1.741,0,0,1,.209-2.2l3.19-3.19a1.755,1.755,0,0,1,2.215-.223L24.286,16.4a1.588,1.588,0,0,0,1.644,0,24.269,24.269,0,0,1,5.489-2.271,1.588,1.588,0,0,0,1.115-1.212l1.658-8.275a1.755,1.755,0,0,1,1.728-1.393h4.444a1.741,1.741,0,0,1,1.714,1.393L43.734,12.9a1.532,1.532,0,0,0,1.1,1.2,25.356,25.356,0,0,1,5.573,2.285,1.532,1.532,0,0,0,1.63,0L59,11.705a1.769,1.769,0,0,1,2.257.139l3.19,3.19a1.769,1.769,0,0,1,.223,2.215l-4.695,6.966a1.588,1.588,0,0,0,0,1.644,24.311,24.311,0,0,1,2.285,5.489,1.574,1.574,0,0,0,1.2,1.115l8.275,1.644a1.755,1.755,0,0,1,1.393,1.728v4.528a1.741,1.741,0,0,1-1.393,1.714l-8.275,1.658a1.546,1.546,0,0,0-1.2,1.115,25.607,25.607,0,0,1-1.519,4.04,1.56,1.56,0,0,0,2.786,1.393h0a27.167,27.167,0,0,0,1.393-3.65l7.356-1.477a4.89,4.89,0,0,0,3.929-4.793V35.9a4.9,4.9,0,0,0-3.929-4.793L64.924,29.65A27.056,27.056,0,0,0,63.1,25.233l4.18-6.255a4.89,4.89,0,0,0-.613-6.158l-3.19-3.19a4.89,4.89,0,0,0-6.158-.613L51.062,13.2a27.055,27.055,0,0,0-4.416-1.825L45.253,4.029A4.89,4.89,0,0,0,40.363.1H35.9a4.89,4.89,0,0,0-4.793,3.929l-1.463,7.342A29.773,29.773,0,0,0,25.233,13.2l-6.255-4.18a4.89,4.89,0,0,0-6.158.7l-3.19,3.121a4.89,4.89,0,0,0-.613,6.158l4.18,6.255a26.916,26.916,0,0,0-1.825,4.4L4.015,31.126A4.89,4.89,0,0,0,.1,35.9v4.458a4.89,4.89,0,0,0,3.929,4.779l7.342,1.477A29.6,29.6,0,0,0,13.2,51.077l-4.18,6.255a4.89,4.89,0,0,0,.7,6.158l3.19,3.19a4.89,4.89,0,0,0,6.158.613l6.255-4.18a28.127,28.127,0,0,0,4.4,1.811L31.2,72.281a4.89,4.89,0,0,0,4.779,3.929h4.389a4.9,4.9,0,0,0,4.793-3.929l1.463-7.356a26.471,26.471,0,0,0,3.525-1.393,1.56,1.56,0,0,0,.738-2.09Z" transform="translate(-0.1 -0.099)" fill="#253370" stroke="#253370" stroke-width="0.2"/>
            <path id="Path_363" data-name="Path 363" d="M44.514,41.032a1.56,1.56,0,0,0,2.09-.669A17.582,17.582,0,0,0,18.74,19.758a1.56,1.56,0,0,0,2.118,2.257h0A14.461,14.461,0,0,1,43.8,38.928a1.574,1.574,0,0,0,.7,2.1Z" transform="translate(7.089 5.71)" fill="#253370" stroke="#253370" stroke-width="0.2"/>
            <path id="Path_364" data-name="Path 364" d="M17.74,22.634a1.574,1.574,0,0,0-1.992.975,17.6,17.6,0,0,0,26.93,19.978,1.566,1.566,0,1,0-1.839-2.536A14.461,14.461,0,0,1,18.7,24.57a1.532,1.532,0,0,0-.961-1.978Z" transform="translate(5.679 8.728)" fill="#253370" stroke="#253370" stroke-width="0.2"/>
            <path id="Path_365" data-name="Path 365" d="M82.521,54.908,77.993,54a21.133,21.133,0,0,0-.989-2.4l2.605-3.887A3.748,3.748,0,0,0,79.15,43l-2.09-2.09a3.748,3.748,0,0,0-4.723-.46L68.506,43a21.135,21.135,0,0,0-2.4-.989L65.2,37.494a3.748,3.748,0,0,0-3.58-2.954H58.587a3.762,3.762,0,0,0-3.65,3.009l-.892,4.514a21.135,21.135,0,0,0-2.4.989L47.817,40.5a3.748,3.748,0,0,0-4.723.46L41,43.052a3.748,3.748,0,0,0-.474,4.667l2.563,3.831a19.324,19.324,0,0,0-1.282,3.33,1.574,1.574,0,0,0,3.023.836h0a15.813,15.813,0,0,1,1.393-3.483,1.588,1.588,0,0,0,0-1.644L43.15,45.978a.613.613,0,0,1,.084-.78l2.076-2.076a.627.627,0,0,1,.78-.084L50.7,46.117a1.588,1.588,0,0,0,1.644,0,15.812,15.812,0,0,1,3.483-1.393,1.574,1.574,0,0,0,1.115-1.2l1.087-5.447a.627.627,0,0,1,.613-.515h2.981a.627.627,0,0,1,.6.515l1.059,5.461a1.574,1.574,0,0,0,1.115,1.2,16.216,16.216,0,0,1,3.5,1.393,1.56,1.56,0,0,0,1.63,0l4.639-3.037a.613.613,0,0,1,.78.084l2.006,2.076a.627.627,0,0,1,0,.78L74,50.645a1.588,1.588,0,0,0,0,1.644,16.565,16.565,0,0,1,1.393,3.483,1.532,1.532,0,0,0,1.2,1.115l5.433,1.087a.627.627,0,0,1,.515.613v2.967a.613.613,0,0,1-.515.6l-5.433,1.087a1.56,1.56,0,0,0-1.2,1.115A16.718,16.718,0,0,1,74,67.851a1.56,1.56,0,0,0,0,1.63l3.079,4.611a.613.613,0,0,1,0,.78l-2.159,2.1a.613.613,0,0,1-.752,0l-4.611-3.065a1.533,1.533,0,0,0-1.63-.07,16.258,16.258,0,0,1-3.5,1.393,1.532,1.532,0,0,0-1.115,1.2l-1.087,5.433a.627.627,0,0,1-.6.683h-3a.655.655,0,0,1-.613-.529l-1.087-5.433a1.532,1.532,0,0,0-1.1-1.2,15.7,15.7,0,0,1-3.5-1.393,1.56,1.56,0,0,0-1.644.07l-4.611,2.912a.6.6,0,0,1-.766-.07l-2.09-2.09a.627.627,0,0,1-.084-.78l3.079-4.611a1.56,1.56,0,0,0,.084-1.574,15.325,15.325,0,0,1-1.393-3.5,1.6,1.6,0,0,0-1.2-1.115l-5.433-1.087a.613.613,0,0,1-.529-.6V58.586a.627.627,0,0,1,.529-.613h.334A1.546,1.546,0,0,0,39.7,56.078a1.574,1.574,0,0,0-1.755-1.24h-.334a3.762,3.762,0,0,0-3,3.65v2.967a3.748,3.748,0,0,0,3,3.65l4.528.906a18.849,18.849,0,0,0,.989,2.4l-2.563,3.831A3.748,3.748,0,0,0,41,76.976l2.09,2.09a3.748,3.748,0,0,0,4.723.46l3.831-2.55a21.135,21.135,0,0,0,2.4.989l.892,4.584a3.762,3.762,0,0,0,3.65,3.009h3.037a3.748,3.748,0,0,0,3.58-3.009l.906-4.514a21.133,21.133,0,0,0,2.4-1.059l3.831,2.55a3.748,3.748,0,0,0,4.723-.46l2.09-2.09a3.748,3.748,0,0,0,.46-4.723l-2.55-3.776a21.133,21.133,0,0,0,.989-2.4l4.472-.906a3.762,3.762,0,0,0,3.009-3.65V58.558a3.748,3.748,0,0,0-3.009-3.65Z" transform="translate(13.468 13.442)" fill="#253370" stroke="#253370" stroke-width="0.2"/>
            <path id="Path_366" data-name="Path 366" d="M55.349,49.72a5.573,5.573,0,0,1,5.573,5.573,1.574,1.574,0,0,0,3.135,0,8.763,8.763,0,1,0-8.763,8.763h0a8.75,8.75,0,0,0,5.351-1.826,1.565,1.565,0,0,0-1.91-2.479h0a5.573,5.573,0,1,1-3.441-10.087Z" transform="translate(18.155 18.156)" fill="#253370" stroke="#253370" stroke-width="0.2"/>
            <path id="Path_367" data-name="Path 367" d="M39.639,30.109a9.529,9.529,0,1,0-9.529,9.529,9.529,9.529,0,0,0,9.529-9.529Zm-15.938,0a6.409,6.409,0,1,1,6.409,6.381h0A6.409,6.409,0,0,1,23.7,30.109Z" transform="translate(7.952 7.953)" fill="#253370" stroke="#253370" stroke-width="0.2"/>
          </g>
        </g>
      </g>
    </g>
  </g>
</svg>
