<svg xmlns="http://www.w3.org/2000/svg" width="100" height="73.53" viewBox="0 0 100 73.53">
  <g id="Layer_2" data-name="Layer 2" transform="translate(0)">
    <g id="Layer_1" data-name="Layer 1" transform="translate(0)">
      <path id="Path_49" data-name="Path 49" d="M21.121,73.53V54.545C7.879,48.909,0,39.8,0,29.985,0,13.455,22.455,0,50,0s50,13.455,50,29.985S77.652,59.97,50,59.97a85.515,85.515,0,0,1-10.258-.621ZM50,3.333c-25.758,0-46.667,11.955-46.667,26.652,0,8.667,7.576,16.833,20.076,21.848l1.045.424V66.818L38.879,55.864l.682.091A80,80,0,0,0,50,56.636h0c25.758,0,46.712-11.955,46.712-26.652S75.758,3.333,50,3.333Z" transform="translate(0)" fill="#253370"/>
    </g>
  </g>
</svg>
