<svg xmlns="http://www.w3.org/2000/svg" width="100" height="91.632" viewBox="0 0 100 91.632">
  <g id="Layer_2" data-name="Layer 2" transform="translate(0 0.01)">
    <g id="Layer_1" data-name="Layer 1" transform="translate(0 -0.01)">
      <g id="icon-signature-blue">
        <rect id="Rectangle_21" data-name="Rectangle 21" width="100" height="3.235" transform="translate(0 88.397)" fill="#253370"/>
        <path id="Path_45" data-name="Path 45" d="M11.44,71.019,21.911,39.9,59.631,2.358A8.824,8.824,0,0,1,72.1,2.8l7.926,7.882a8.824,8.824,0,0,1,.426,12.338L42.69,60.608ZM24.675,41.608,16.572,65.9,40.94,57.784,78.131,20.769a5.485,5.485,0,0,0-.309-7.721l-8.044-8A5.618,5.618,0,0,0,61.866,4.7Z" transform="translate(5.384 0.01)" fill="#253370"/>
        <rect id="Rectangle_22" data-name="Rectangle 22" width="3.235" height="25.382" transform="translate(31.714 38.821) rotate(-45.13)" fill="#253370"/>
        <rect id="Rectangle_23" data-name="Rectangle 23" width="3.235" height="13.603" transform="translate(23.393 55.1) rotate(-45.13)" fill="#253370"/>
        <rect id="Rectangle_24" data-name="Rectangle 24" width="54.574" height="3.235" transform="translate(40.98 45.737) rotate(-44.87)" fill="#253370"/>
      </g>
    </g>
  </g>
</svg>
