<svg id="Layer_2" data-name="Layer 2" xmlns="http://www.w3.org/2000/svg" width="49.274" height="100.14" viewBox="0 0 49.274 100.14">
  <g id="Layer_1" data-name="Layer 1">
    <g id="Group_715" data-name="Group 715">
      <path id="Path_32" data-name="Path 32" d="M24.637,81.436l-1.561-2.685C22.2,77.049,0,37.158,0,24.2.078,7.572,12.818,0,24.637,0h0C36.456,0,49.211,7.572,49.274,24.2h0c0,12.959-22.186,52.849-23.138,54.551Zm0-78.064C14.473,3.435,3.5,9.93,3.435,24.2c0,10.226,16.144,40.8,21.2,50.132,5.074-9.368,21.2-39.891,21.2-50.132C45.777,9.93,34.816,3.435,24.637,3.435Z" fill="#253370"/>
      <path id="Path_33" data-name="Path 33" d="M19.723,29.215A10.929,10.929,0,0,1,8.794,18.286a9.914,9.914,0,0,1,5.012-9.1,12.147,12.147,0,0,1,11.944,0,9.961,9.961,0,0,1,4.965,9.133,10.929,10.929,0,0,1-10.991,10.9Zm0-18.158a8.431,8.431,0,0,0-4.247,1.093,6.479,6.479,0,0,0-3.232,6.12h0a7.494,7.494,0,1,0,14.973,0,6.5,6.5,0,0,0-3.247-6.136,8.415,8.415,0,0,0-4.247-1.077Z" transform="translate(4.929 4.274)" fill="#253370"/>
    </g>
    <path id="Path_34" data-name="Path 34" d="M24.637,81.436l-1.561-2.685C22.2,77.049,0,37.158,0,24.2.078,7.572,12.818,0,24.637,0h0C36.456,0,49.211,7.572,49.274,24.2h0c0,12.959-22.186,52.849-23.138,54.551Zm0-78.064C14.473,3.435,3.5,9.93,3.435,24.2c0,10.226,16.144,40.8,21.2,50.132,5.074-9.368,21.2-39.891,21.2-50.132C45.777,9.93,34.816,3.435,24.637,3.435Z" fill="#253370"/>
    <path id="Path_35" data-name="Path 35" d="M19.723,29.215A10.929,10.929,0,0,1,8.794,18.286a9.914,9.914,0,0,1,5.012-9.1,12.147,12.147,0,0,1,11.944,0,9.961,9.961,0,0,1,4.965,9.133,10.929,10.929,0,0,1-10.991,10.9Zm0-18.158a8.431,8.431,0,0,0-4.247,1.093,6.479,6.479,0,0,0-3.232,6.12h0a7.494,7.494,0,1,0,14.973,0,6.5,6.5,0,0,0-3.247-6.136,8.415,8.415,0,0,0-4.247-1.077Z" transform="translate(4.929 4.274)" fill="#253370"/>
    <path id="Path_36" data-name="Path 36" d="M22.791,75.568c-9.212,0-17.533-5.449-20.3-13.489-2.373-6.87,0-13.708,6.323-18.3l2.014,2.779c-5.121,3.716-7.041,8.962-5.09,14.395s8.4,11.522,17.939,11.163c9.539.328,16-5.433,18.017-10.929s.281-10.445-4.512-14.239l2.123-2.7c5.948,4.684,8.056,11.475,5.6,18.111-2.966,8.087-11.678,13.489-21.233,13.177Z" transform="translate(0.893 24.572)" fill="#253370"/>
  </g>
</svg>
