<svg id="Layer_2" data-name="Layer 2" xmlns="http://www.w3.org/2000/svg" width="100" height="95.534" viewBox="0 0 100 95.534">
  <g id="Layer_1" data-name="Layer 1">
    <path id="Path_1" data-name="Path 1" d="M75.082,95.534,53.908,73.747H0V0H100V73.706H75.082ZM3.4,70.3H55.351L71.678,87.146V70.3H96.6V3.4H3.4Z" fill="#253370"/>
    <g id="_" data-name=" " transform="translate(40.605 11.969)">
      <g id="Group_1" data-name="Group 1">
        <path id="Path_2" data-name="Path 2" d="M36.193,41.851a13.438,13.438,0,0,1-.5-2.111,16.408,16.408,0,0,1-.177-2.574,8.034,8.034,0,0,1,.763-3.581,14.488,14.488,0,0,1,1.961-3.05,28.294,28.294,0,0,1,2.587-2.723c.94-.871,1.8-1.743,2.6-2.628A14.978,14.978,0,0,0,45.4,22.461a6.563,6.563,0,0,0,.8-3.2,5.787,5.787,0,0,0-.586-2.723,5.583,5.583,0,0,0-1.58-1.934,6.931,6.931,0,0,0-2.3-1.171,9.872,9.872,0,0,0-2.791-.395,12.119,12.119,0,0,0-9.123,4.208V11.8a18.4,18.4,0,0,1,9.9-3.009,15.9,15.9,0,0,1,4.48.626,10.893,10.893,0,0,1,3.663,1.865,8.878,8.878,0,0,1,2.492,3.077,9.64,9.64,0,0,1,.9,4.248,10.09,10.09,0,0,1-.763,4.085,14.665,14.665,0,0,1-2.056,3.336,26.129,26.129,0,0,1-2.723,2.819c-.953.885-1.852,1.743-2.723,2.614a14.079,14.079,0,0,0-2.042,2.723,6.073,6.073,0,0,0-.817,3.1,9.11,9.11,0,0,0,.34,2.6,18.178,18.178,0,0,0,.694,1.988Zm2.819,13a3.445,3.445,0,0,1-2.437-1.008,3.227,3.227,0,0,1-1.062-2.437,3.186,3.186,0,0,1,1.035-2.437,3.418,3.418,0,0,1,4.875,0,3.227,3.227,0,0,1,1.021,2.437,3.268,3.268,0,0,1-1.021,2.437,3.472,3.472,0,0,1-2.41,1.008Z" transform="translate(-29.82 -8.79)" fill="#253370"/>
      </g>
    </g>
  </g>
</svg>
